<?xml version="1.0" encoding="UTF-8"?>
<svg xmlns="http://www.w3.org/2000/svg" xmlns:xlink="http://www.w3.org/1999/xlink" width="240pt" height="240pt" viewBox="0 0 240 240" version="1.1">
<g id="surface24776571">
<path style=" stroke:none;fill-rule:nonzero;fill:rgb(83.529413%,0%,0%);fill-opacity:1;" d="M 48.152344 177.8125 L 178.257812 47.703125 L 192.398438 61.84375 L 62.292969 191.953125 Z M 48.152344 177.8125 "/>
<path style=" stroke:none;fill-rule:nonzero;fill:rgb(83.529413%,0%,0%);fill-opacity:1;" d="M 120 20 C 65 20 20 65 20 120 C 20 175 65 220 120 220 C 175 220 220 175 220 120 C 220 65 175 20 120 20 Z M 120 200 C 76 200 40 164 40 120 C 40 76 76 40 120 40 C 164 40 200 76 200 120 C 200 164 164 200 120 200 Z M 120 200 "/>
</g>
</svg>
