<?xml version="1.0" encoding="UTF-8" standalone="no"?>
<svg
   xmlns:dc="http://purl.org/dc/elements/1.1/"
   xmlns:cc="http://creativecommons.org/ns#"
   xmlns:rdf="http://www.w3.org/1999/02/22-rdf-syntax-ns#"
   xmlns:svg="http://www.w3.org/2000/svg"
   xmlns="http://www.w3.org/2000/svg"
   xmlns:sodipodi="http://sodipodi.sourceforge.net/DTD/sodipodi-0.dtd"
   xmlns:inkscape="http://www.inkscape.org/namespaces/inkscape"
   version="1.1"
   id="svg2"
   xml:space="preserve"
   width="1747.2721"
   height="713.08557"
   viewBox="0 0 1747.2721 713.08556"
   sodipodi:docname="logo.svg"
   inkscape:export-filename="C:\Users\Nicat\Downloads\logo2.png"
   inkscape:export-xdpi="83.220001"
   inkscape:export-ydpi="83.220001"
   inkscape:version="0.92.4 (5da689c313, 2019-01-14)"><metadata
     id="metadata8"><rdf:RDF><cc:Work
         rdf:about=""><dc:format>image/svg+xml</dc:format><dc:type
           rdf:resource="http://purl.org/dc/dcmitype/StillImage" /><dc:title></dc:title></cc:Work></rdf:RDF></metadata><defs
     id="defs6"><clipPath
       clipPathUnits="userSpaceOnUse"
       id="clipPath18"><path
         d="M 0,2000 H 2000 V 0 H 0 Z"
         id="path16"
         inkscape:connector-curvature="0" /></clipPath></defs><sodipodi:namedview
     pagecolor="#ffffff"
     bordercolor="#666666"
     borderopacity="1"
     objecttolerance="10"
     gridtolerance="10"
     guidetolerance="10"
     inkscape:pageopacity="0"
     inkscape:pageshadow="2"
     inkscape:window-width="2880"
     inkscape:window-height="1526"
     id="namedview4"
     showgrid="false"
     inkscape:zoom="0.35399999"
     inkscape:cx="-170.62758"
     inkscape:cy="213.56205"
     inkscape:window-x="-11"
     inkscape:window-y="-11"
     inkscape:window-maximized="1"
     inkscape:current-layer="g10"
     width="2655.6667px"
     fit-margin-top="0"
     fit-margin-left="0"
     fit-margin-right="0"
     fit-margin-bottom="0" /><g
     id="g10"
     inkscape:groupmode="layer"
     inkscape:label="AI FILE"
     transform="matrix(1.3333333,0,0,-1.3333333,-459.69719,1689.8762)"><g
       id="g1108"><g
         style="fill:#ff6600"
         transform="translate(801.0015,1220.1782)"
         id="g20"><path
           inkscape:connector-curvature="0"
           id="path22"
           style="fill:#ff6600;fill-opacity:1;fill-rule:nonzero;stroke:none"
           d="M 0,0 C 0,-0.002 0,-0.004 -0.001,-0.006 0,-0.004 0,-0.002 0,0 m -0.196,-1.644 c -1.139,-9.789 -1.689,-19.343 -1.688,-28.649 -0.038,-62.324 24.812,-113.348 62.109,-148.519 37.291,-35.203 86.868,-54.801 136.715,-55.295 l 0.045,-0.001 h 3.932 -3.835 v 16.184 c -45.699,0.43 -91.522,18.532 -125.745,50.876 C 49.571,-146.453 32.434,-120.2 22.833,-88.891 10.316,-65.394 2.306,-38.753 -0.283,-10 c -0.109,1.208 -0.163,2.43 -0.163,3.665 0.004,1.545 0.087,3.111 0.25,4.691 M 16.058,-1.97 c -0.094,-0.64 -0.167,-1.27 -0.22,-1.887 0.073,0.628 0.147,1.256 0.224,1.887 h -0.004 m 181.024,-215.954 h -0.064 0.064 v 0 m 3.835,0 -0.012,-0.001 c 0.003,0 0.008,0.001 0.012,0.001" /></g><g
         style="fill:#ff6600"
         transform="translate(1198.9995,1220.1772)"
         id="g24"><path
           inkscape:connector-curvature="0"
           id="path26"
           style="fill:#ff6600;fill-opacity:1;fill-rule:nonzero;stroke:none"
           d="m 0,0 -0.071,-0.009 c 0.291,-2.137 0.441,-4.251 0.45,-6.326 0,-1.236 -0.053,-2.456 -0.162,-3.663 -2.577,-28.636 -10.534,-55.178 -22.963,-78.605 -9.585,-31.432 -26.761,-57.788 -48.592,-78.444 -34.224,-32.346 -80.044,-50.448 -125.744,-50.876 v -0.001 -16.183 h 0.066 0.046 l 0.032,0.001 c 49.846,0.494 99.422,20.092 136.713,55.294 37.296,35.172 62.145,86.196 62.108,148.52 C 1.883,-20.466 1.27,-10.362 0,0 m -197.016,-217.923 h -3.901 3.835 v 0 h 0.066 m -3.901,0 v 0 c 0.006,0 0.01,0 0.015,-0.001 l -0.015,0.001" /></g><g
         style="fill:#ff6600"
         transform="translate(1001.918,1002.2544)"
         id="g28"><path
           inkscape:connector-curvature="0"
           id="path30"
           style="fill:#ff6600;fill-opacity:1;fill-rule:nonzero;stroke:none"
           d="M 0,0 H -3.835 V 0 L -3.82,-0.001 C -3.826,0 -3.829,0 -3.835,0 V -16.184 H 0 V -0.001 0 C -0.003,0 -0.009,-0.001 -0.012,-0.001 L 0,0 v 0" /></g><g
         style="fill:#ff6600"
         transform="translate(1092.2007,1267.4072)"
         id="g32"><path
           inkscape:connector-curvature="0"
           id="path34"
           style="fill:#ff6600;fill-opacity:1;fill-rule:nonzero;stroke:none"
           d="m 0,0 -0.715,-0.128 c -14.021,-2.528 -26.034,-11.647 -32.102,-24.615 -10.461,-22.34 -33.121,-37.823 -59.415,-37.816 h -0.017 c -26.29,0 -48.94,15.48 -59.4,37.816 -6.069,12.968 -18.082,22.087 -32.103,24.615 L -184.467,0 -237.523,-0.069 h -0.046 c -8.818,0 -16.794,-1.937 -23.625,-5.244 -10.285,-4.973 -17.892,-12.901 -22.894,-21.525 -3.806,-6.587 -6.183,-13.585 -7.111,-20.391 l 16.058,-1.97 c 0.957,6.557 4.061,14.166 9.239,20.167 3.178,3.724 7.084,6.892 11.748,9.147 4.673,2.249 10.121,3.626 16.642,3.633 l 51.558,0.067 c 8.627,-1.771 15.933,-7.472 19.646,-15.416 13.013,-27.847 41.302,-47.133 74.076,-47.141 32.772,0.008 61.06,19.294 74.074,47.142 3.712,7.943 11.019,13.644 19.646,15.415 l 51.55,-0.067 c 6.53,-0.007 11.977,-1.384 16.65,-3.633 6.983,-3.372 12.316,-8.844 15.937,-15.077 3.622,-6.201 5.391,-13.147 5.369,-18.603 0,-0.767 -0.034,-1.508 -0.097,-2.214 -4.377,-48.293 -25.01,-89.475 -56.791,-118.828 -31.801,-29.332 -74.796,-46.895 -124.466,-47.39 h -3.743 l -0.078,-8.091 0.078,8.091 h -0.078 0.078 c -49.672,0.495 -92.668,18.058 -124.469,47.39 -31.782,29.353 -52.415,70.535 -56.793,118.834 -0.063,0.701 -0.096,1.439 -0.096,2.209 -0.006,0.797 0.028,1.626 0.1,2.478 -1.04,-9.061 -1.539,-17.877 -1.539,-26.436 0.013,-21.109 3.04,-40.683 8.534,-58.598 10.141,-19.037 23.241,-36.009 38.817,-50.379 34.784,-32.126 81.876,-51.183 135.29,-51.681 h 0.045 0.033 3.898 0.046 0.032 c 53.413,0.498 100.505,19.555 135.288,51.681 15.655,14.442 28.807,31.513 38.97,50.666 5.439,17.84 8.433,37.312 8.446,58.311 0,9.152 -0.571,18.597 -1.763,28.324 l 15.992,1.959 c -1.332,9.791 -5.627,20.018 -12.979,28.708 -4.489,5.267 -10.172,9.909 -17.021,13.217 -6.829,3.307 -14.806,5.244 -23.634,5.245 H 53.048 L 0,0 m -291.2,-47.235 c -0.074,-0.547 -0.14,-1.094 -0.196,-1.638 0.063,0.545 0.129,1.091 0.196,1.638 m 197.097,-174.762 v 0" /></g><g
         style="fill:#ff6600"
         transform="translate(801.0015,1220.1782)"
         id="g36"><path
           inkscape:connector-curvature="0"
           id="path38"
           style="fill:#ff6600;fill-opacity:1;fill-rule:nonzero;stroke:none"
           d="m 0,0 c 0,-0.002 0,-0.004 -0.001,-0.006 -0.067,-0.547 -0.132,-1.093 -0.195,-1.638 -0.163,-1.58 -0.246,-3.146 -0.25,-4.691 0,-1.235 0.054,-2.457 0.163,-3.665 2.589,-28.753 10.599,-55.394 23.116,-78.891 -5.494,17.915 -8.521,37.489 -8.534,58.598 0,8.559 0.499,17.375 1.539,26.436 0.053,0.617 0.126,1.247 0.22,1.887 L 0,0" /></g><g
         style="fill:#ff6600"
         transform="translate(1198.9287,1220.1685)"
         id="g40"><path
           inkscape:connector-curvature="0"
           id="path42"
           style="fill:#ff6600;fill-opacity:1;fill-rule:nonzero;stroke:none"
           d="m 0,0 -15.992,-1.959 c 1.192,-9.728 1.763,-19.172 1.763,-28.324 -0.013,-20.999 -3.007,-40.471 -8.446,-58.311 12.429,23.427 20.385,49.969 22.963,78.605 0.108,1.207 0.162,2.427 0.162,3.662 C 0.44,-4.251 0.291,-2.137 0,0" /></g><g
         style="fill:#778899;fill-opacity:1"
         transform="translate(991.877,1148.3169)"
         id="g44"><path
           inkscape:connector-curvature="0"
           id="path46"
           style="fill:#778899;fill-opacity:1;fill-rule:nonzero;stroke:none"
           d="m 0,0 v -70.456 c 0,-4.468 3.623,-8.091 8.092,-8.091 4.469,0 8.092,3.623 8.092,8.091 V 0 c 0,4.469 -3.623,8.091 -8.092,8.091 C 3.623,8.091 0,4.469 0,0" /></g><g
         style="fill:#778899;fill-opacity:1"
         transform="translate(1044.9106,1155.5522)"
         id="g48"><path
           inkscape:connector-curvature="0"
           id="path50"
           style="fill:#778899;fill-opacity:1;fill-rule:nonzero;stroke:none"
           d="m 0,0 36.334,-60.364 c 2.305,-3.829 7.277,-5.065 11.105,-2.76 3.83,2.304 5.065,7.276 2.76,11.105 L 13.865,8.345 C 11.561,12.174 6.589,13.41 2.76,11.105 -1.069,8.801 -2.305,3.829 0,0" /></g><g
         style="fill:#778899;fill-opacity:1"
         transform="translate(1085.377,1192.6436)"
         id="g52"><path
           inkscape:connector-curvature="0"
           id="path54"
           style="fill:#778899;fill-opacity:1;fill-rule:nonzero;stroke:none"
           d="m 0,0 58.265,-39.611 c 3.696,-2.512 8.729,-1.553 11.241,2.143 2.513,3.696 1.554,8.729 -2.142,11.241 L 9.099,13.384 C 5.403,15.896 0.37,14.937 -2.143,11.241 -4.655,7.545 -3.696,2.513 0,0" /></g><g
         style="fill:#778899;fill-opacity:1"
         transform="translate(941.1611,1163.8979)"
         id="g56"><path
           inkscape:connector-curvature="0"
           id="path58"
           style="fill:#778899;fill-opacity:1;fill-rule:nonzero;stroke:none"
           d="m 0,0 -36.336,-60.364 c -2.305,-3.829 -1.07,-8.801 2.759,-11.106 3.829,-2.305 8.801,-1.07 11.106,2.76 L 13.866,-8.346 C 16.17,-4.518 14.935,0.455 11.106,2.759 7.277,5.064 2.305,3.829 0,0" /></g><g
         style="fill:#778899;fill-opacity:1"
         transform="translate(905.4619,1206.0273)"
         id="g60"><path
           inkscape:connector-curvature="0"
           id="path62"
           style="fill:#778899;fill-opacity:1;fill-rule:nonzero;stroke:none"
           d="m 0,0 -58.268,-39.61 c -3.695,-2.513 -4.655,-7.546 -2.142,-11.242 2.512,-3.695 7.545,-4.655 11.241,-2.143 l 58.267,39.611 c 3.696,2.513 4.655,7.546 2.143,11.241 C 8.729,1.553 3.696,2.513 0,0" /></g><g
         style="fill:#ff6600"
         transform="translate(344.7729,859.4785)"
         id="g64"><path
           inkscape:connector-curvature="0"
           id="path66"
           style="fill:#ff6600;fill-opacity:1;fill-rule:nonzero;stroke:none"
           d="m 0,0 c 0,18.807 9.709,27.169 21.516,27.169 5.776,0 9.972,-1.793 13.91,-5.975 7.347,4.475 15.744,5.975 23.616,5.975 15.22,0 27.814,-4.188 37.523,-12.244 9.71,8.056 22.57,12.244 37.789,12.244 37.261,0 59.043,-24.188 59.043,-66.577 v -57.62 c 0,-19.707 -9.447,-28.365 -21.257,-28.365 -12.069,0 -21.516,8.658 -21.516,28.365 v 57.02 c 0,10.45 -7.348,18.513 -16.27,18.513 -8.659,0 -15.744,-7.463 -16.269,-17.019 v -58.514 c 0,-19.707 -9.447,-28.365 -21.257,-28.365 -12.069,0 -21.516,8.658 -21.516,28.365 v 57.02 c 0,10.45 -7.347,18.513 -16.27,18.513 -8.659,0 -15.744,-7.463 -16.269,-17.019 v -58.514 c 0,-18.808 -9.71,-28.658 -20.994,-28.658 -12.594,0 -21.254,7.463 -21.779,28.357 z" /></g><g
         style="fill:#ff6600"
         transform="translate(628.1699,780.6572)"
         id="g68"><path
           inkscape:connector-curvature="0"
           id="path70"
           style="fill:#ff6600;fill-opacity:1;fill-rule:nonzero;stroke:none"
           d="M 0,0 C 14.432,0 25.191,12.544 25.191,28.963 25.191,45.383 14.432,57.92 0,57.92 -13.907,57.92 -24.929,45.383 -24.929,28.963 -24.929,12.544 -13.907,0 0,0 m 0,105.99 c 11.285,0 21.779,-2.987 31.226,-8.362 3.938,5.075 9.185,7.463 15.485,7.463 h 2.097 C 63.243,103.604 67.965,89.865 67.965,76.427 v -95.228 c 0,-14.038 -6.035,-28.364 -19.682,-28.364 h -1.572 c -6.038,0 -11.547,2.388 -15.485,7.163 -9.184,-5.375 -20.204,-8.062 -31.226,-8.062 -36.998,0 -67.44,34.631 -67.44,77.027 0,42.389 30.442,77.027 67.44,77.027" /></g><g
         style="fill:#ff6600"
         transform="translate(722.1108,859.4785)"
         id="g72"><path
           inkscape:connector-curvature="0"
           id="path74"
           style="fill:#ff6600;fill-opacity:1;fill-rule:nonzero;stroke:none"
           d="m 0,0 c 0,18.807 9.709,27.169 21.779,27.169 5.513,0 9.709,-1.793 13.647,-5.975 7.347,4.475 15.744,5.975 23.616,5.975 37.261,0 59.043,-24.188 59.043,-66.577 v -57.62 c 0,-19.707 -9.447,-28.365 -20.994,-28.365 -12.332,0 -21.779,8.658 -21.779,28.365 v 57.02 c 0,10.45 -7.347,18.513 -16.27,18.513 -8.396,0 -15.744,-7.463 -16.269,-17.019 v -58.514 c 0,-18.808 -9.71,-28.658 -20.994,-28.658 -12.594,0 -21.254,7.463 -21.779,28.357 z" /></g><g
         style="fill:#ff6600"
         transform="translate(925.7397,780.6572)"
         id="g76"><path
           inkscape:connector-curvature="0"
           id="path78"
           style="fill:#ff6600;fill-opacity:1;fill-rule:nonzero;stroke:none"
           d="M 0,0 C 14.169,0 24.929,12.244 24.929,28.663 24.929,45.089 14.169,57.326 0,57.326 -14.172,57.326 -25.191,45.089 -25.191,28.663 -25.191,12.244 -14.172,0 0,0 m 67.961,-18.801 c 0,-17.019 -8.397,-28.063 -21.516,-28.364 -6.034,0 -11.284,2.688 -15.219,7.163 -8.66,-4.775 -19.419,-8.062 -31.226,-8.062 -37.264,0 -67.703,34.338 -67.703,76.727 0,42.396 30.439,76.728 67.703,76.728 9.444,0 17.319,-1.495 25.191,-5.375 v 35.826 c 0,19.7 9.444,28.663 21.254,28.663 14.957,0 21.516,-11.05 21.516,-28.663 z" /></g><g
         style="fill:#ff6600"
         transform="translate(1084.2295,780.6572)"
         id="g80"><path
           inkscape:connector-curvature="0"
           id="path82"
           style="fill:#ff6600;fill-opacity:1;fill-rule:nonzero;stroke:none"
           d="M 0,0 C 14.432,0 25.191,12.544 25.191,28.963 25.191,45.383 14.432,57.92 0,57.92 -13.907,57.92 -24.929,45.383 -24.929,28.963 -24.929,12.544 -13.907,0 0,0 m 0,105.99 c 11.285,0 21.779,-2.987 31.226,-8.362 3.938,5.075 9.185,7.463 15.485,7.463 h 2.097 C 63.243,103.604 67.965,89.865 67.965,76.427 v -95.228 c 0,-14.038 -6.035,-28.364 -19.682,-28.364 h -1.572 c -6.038,0 -11.547,2.388 -15.485,7.163 -9.184,-5.375 -20.204,-8.062 -31.226,-8.062 -36.998,0 -67.44,34.631 -67.44,77.027 0,42.389 30.442,77.027 67.44,77.027" /></g><g
         style="fill:#8394a1;fill-opacity:1"
         transform="translate(1178.1704,859.4785)"
         id="g84"><path
           inkscape:connector-curvature="0"
           id="path86"
           style="fill:#8394a1;fill-opacity:1;fill-rule:nonzero;stroke:none"
           d="m 0,0 c 0,18.807 9.709,27.169 21.779,27.169 7.872,0 13.647,-5.375 16.794,-12.537 8.922,8.349 16.532,12.537 27.292,12.537 14.694,0 24.404,-12.838 24.404,-26.575 0,-12.239 -7.873,-23.883 -18.37,-23.883 -6.034,0 -9.71,2.388 -16.006,1.794 -8.398,-0.9 -13.12,-8.963 -13.12,-24.189 v -51.344 c 0,-18.808 -9.71,-28.658 -20.732,-28.658 -12.856,0 -21.516,7.463 -22.041,28.357 z" /></g><g
         style="fill:#8394a1;fill-opacity:1"
         transform="translate(1363.689,826.04)"
         id="g88"><path
           inkscape:connector-curvature="0"
           id="path90"
           style="fill:#8394a1;fill-opacity:1;fill-rule:nonzero;stroke:none"
           d="M 0,0 C 0,6.269 -8.922,14.932 -23.091,14.932 -37.261,14.932 -45.658,2.98 -45.658,0 V -0.294 H 0 Z m 10.235,-41.195 c 1.05,0.293 2.363,0.293 3.675,0.293 10.494,0 16.269,-6.869 16.269,-17.913 0,-7.163 -2.625,-13.432 -7.084,-18.206 -13.123,-14.039 -29.13,-16.426 -45.661,-16.426 -37.523,0 -67.703,34.632 -67.703,77.628 0,42.388 30.18,76.426 67.703,76.426 34.901,0 62.717,-29.563 66.127,-68.07 v -2.394 c 0,-13.131 -9.71,-23.282 -21.254,-23.282 H -44.87 c 0,-5.969 9.972,-17.319 24.141,-17.319 19.157,0 20.467,7.763 30.964,9.263" /></g><g
         style="fill:#8394a1;fill-opacity:1"
         transform="translate(1428.7661,859.4785)"
         id="g92"><path
           inkscape:connector-curvature="0"
           id="path94"
           style="fill:#8394a1;fill-opacity:1;fill-rule:nonzero;stroke:none"
           d="m 0,0 c 0,18.807 9.71,27.169 21.779,27.169 5.513,0 9.71,-1.793 13.647,-5.975 7.347,4.475 15.745,5.975 23.617,5.975 37.261,0 59.042,-24.188 59.042,-66.577 v -57.62 c 0,-19.707 -9.447,-28.365 -20.994,-28.365 -12.332,0 -21.779,8.658 -21.779,28.365 v 57.02 c 0,10.45 -7.347,18.513 -16.269,18.513 -8.397,0 -15.744,-7.463 -16.27,-17.019 v -58.514 c 0,-18.808 -9.709,-28.658 -20.994,-28.658 -12.594,0 -21.254,7.463 -21.779,28.357 z" /></g><g
         style="fill:#8394a1;fill-opacity:1"
         transform="translate(1584.375,895.8984)"
         id="g96"><path
           inkscape:connector-curvature="0"
           id="path98"
           style="fill:#8394a1;fill-opacity:1;fill-rule:nonzero;stroke:none"
           d="M 0,0 C 0,19.7 9.447,28.363 21.782,28.363 33.326,28.363 42.773,19.7 42.773,0 v -11.638 h 5.247 c 15.748,0 22.832,-9.857 22.832,-22.101 0,-12.838 -7.084,-22.688 -22.832,-22.688 h -5.247 v -77.322 c 0,-19.706 -9.447,-28.356 -20.991,-28.356 -12.335,0 -21.782,8.65 -21.782,28.356 v 77.322 h -5.51 c -16.007,0 -23.091,9.85 -23.091,22.688 0,12.244 7.084,22.101 23.091,22.101 H 0 Z" /></g></g></g></svg>